<svg width="180" height="64" viewBox="0 0 180 64" fill="none" xmlns="http://www.w3.org/2000/svg">
<path d="M95.32 23.28H84.12V29.92H95V35.2H84.12V46H78.6V18H95.32V23.28ZM122.902 42.36C120.076 45.16 116.636 46.56 112.582 46.56C108.529 46.56 105.089 45.16 102.262 42.36C99.4622 39.5333 98.0622 36.08 98.0622 32C98.0622 27.92 99.4622 24.48 102.262 21.68C105.089 18.8533 108.529 17.44 112.582 17.44C116.636 17.44 120.076 18.8533 122.902 21.68C125.729 24.48 127.142 27.92 127.142 32C127.142 36.08 125.729 39.5333 122.902 42.36ZM106.142 38.6C107.876 40.3067 110.022 41.16 112.582 41.16C115.142 41.16 117.289 40.3067 119.022 38.6C120.756 36.8667 121.622 34.6667 121.622 32C121.622 29.3333 120.756 27.1333 119.022 25.4C117.289 23.6667 115.142 22.8 112.582 22.8C110.022 22.8 107.876 23.6667 106.142 25.4C104.409 27.1333 103.542 29.3333 103.542 32C103.542 34.6667 104.409 36.8667 106.142 38.6ZM146.382 46L140.742 36.28H136.542V46H131.022V18H142.222C144.809 18 147.009 18.9067 148.822 20.72C150.635 22.5333 151.542 24.72 151.542 27.28C151.542 29.0133 151.049 30.6267 150.062 32.12C149.075 33.5867 147.769 34.6933 146.142 35.44L152.342 46H146.382ZM136.542 23.16V31.44H142.222C143.262 31.44 144.155 31.04 144.902 30.24C145.649 29.4133 146.022 28.4267 146.022 27.28C146.022 26.1333 145.649 25.16 144.902 24.36C144.155 23.56 143.262 23.16 142.222 23.16H136.542ZM173.592 46L171.912 40.96H160.752L159.072 46H153.112L162.912 18H169.752L179.592 46H173.592ZM162.512 35.8H170.192L166.352 24.36L162.512 35.8Z" fill="#0177FC"/>
<g clip-path="url(#clip0_4133_8784)">
<rect x="-59.6758" y="81.557" width="115.339" height="30.1822" rx="15.0911" transform="rotate(-45 -59.6758 81.557)" fill="url(#paint0_linear_4133_8784)"/>
<rect x="124.521" y="-17.5769" width="115.339" height="30.1822" rx="15.0911" transform="rotate(135 124.521 -17.5769)" fill="url(#paint1_linear_4133_8784)"/>
</g>
<rect x="0.432432" y="0.432432" width="63.1351" height="63.1351" stroke="#0177FC" stroke-width="0.864865"/>
<defs>
<linearGradient id="paint0_linear_4133_8784" x1="70.7853" y1="96.679" x2="-74.7978" y2="96.6791" gradientUnits="userSpaceOnUse">
<stop stop-color="#0177FC"/>
<stop offset="1" stop-color="#0177FC" stop-opacity="0"/>
</linearGradient>
<linearGradient id="paint1_linear_4133_8784" x1="254.982" y1="-2.45488" x2="109.399" y2="-2.45487" gradientUnits="userSpaceOnUse">
<stop stop-color="#0177FC"/>
<stop offset="1" stop-color="#0177FC" stop-opacity="0"/>
</linearGradient>
<clipPath id="clip0_4133_8784">
<rect width="64" height="64" fill="white"/>
</clipPath>
</defs>
</svg>
