<svg width="50" height="50" viewBox="0 0 50 50" fill="none" xmlns="http://www.w3.org/2000/svg">
<g clip-path="url(#clip0_4110_9747)">
<path fill-rule="evenodd" clip-rule="evenodd" d="M50 25C50 38.8071 38.8071 50 25 50C11.1929 50 0 38.8071 0 25C0 11.1929 11.1929 0 25 0C38.8071 0 50 11.1929 50 25ZM25.8959 18.4564C23.4643 19.4677 18.6045 21.5611 11.3164 24.7363C10.133 25.207 9.51304 25.6674 9.4566 26.1176C9.36122 26.8784 10.314 27.178 11.6114 27.5859C11.7879 27.6414 11.9707 27.6989 12.1582 27.7599C13.4347 28.1748 15.1517 28.6602 16.0443 28.6795C16.854 28.697 17.7578 28.3632 18.7555 27.678C25.5649 23.0815 29.08 20.7582 29.3006 20.7081C29.4563 20.6728 29.6721 20.6283 29.8183 20.7583C29.9644 20.8882 29.9501 21.1343 29.9346 21.2003C29.8402 21.6026 26.1002 25.0796 24.1648 26.879C23.5615 27.4399 23.1335 27.8378 23.046 27.9287C22.85 28.1322 22.6503 28.3248 22.4583 28.5098C21.2724 29.653 20.3831 30.5103 22.5075 31.9102C23.5284 32.583 24.3453 33.1393 25.1603 33.6943C26.0504 34.3004 26.9381 34.905 28.0867 35.6579C28.3793 35.8497 28.6588 36.049 28.931 36.243C29.9668 36.9814 30.8974 37.6449 32.0471 37.5391C32.7151 37.4776 33.4051 36.8494 33.7556 34.976C34.5838 30.5485 36.2117 20.9554 36.588 17.0023C36.6209 16.6559 36.5795 16.2127 36.5462 16.0181C36.5129 15.8235 36.4433 15.5463 36.1903 15.3411C35.8908 15.098 35.4284 15.0468 35.2216 15.0504C34.2813 15.067 32.8387 15.5686 25.8959 18.4564Z" fill="#636376"/>
</g>
<defs>
<clipPath id="clip0_4110_9747">
<rect width="50" height="50" fill="white"/>
</clipPath>
</defs>
</svg>
