<svg width="50" height="50" viewBox="0 0 50 50" fill="none" xmlns="http://www.w3.org/2000/svg">
<path fill-rule="evenodd" clip-rule="evenodd" d="M25 50C38.8071 50 50 38.8071 50 25C50 11.1929 38.8071 0 25 0C11.1929 0 0 11.1929 0 25C0 38.8071 11.1929 50 25 50ZM37.9479 20.7599C37.9479 28.7655 31.7557 38 20.4377 38C17.0919 38.0017 13.8161 37.057 11 35.2782C11.488 35.3366 11.9791 35.3663 12.4707 35.367C15.2427 35.3713 17.9355 34.4569 20.1154 32.771C18.8314 32.7456 17.5875 32.3261 16.5572 31.5711C15.527 30.8161 14.7618 29.7633 14.3686 28.5596C15.29 28.7351 16.2401 28.6996 17.1453 28.4557C15.7517 28.1795 14.4982 27.4367 13.5979 26.3534C12.6976 25.2701 12.2062 23.9133 12.207 22.5136V22.4386C13.0625 22.9048 14.0183 23.1638 14.9955 23.1944C13.6938 22.3371 12.7725 21.0241 12.4188 19.522C12.0651 18.02 12.3055 16.4417 13.0912 15.108C14.6371 16.9786 16.565 18.5084 18.75 19.5984C20.9349 20.6883 23.3281 21.314 25.7744 21.4348C25.4693 20.1356 25.6074 18.7735 26.1673 17.5593C26.7272 16.3451 27.6779 15.3463 28.8722 14.7173C30.0665 14.0883 31.438 13.8643 32.7746 14.0797C34.1112 14.2952 35.3385 14.9382 36.2668 15.9093C37.6445 15.641 38.9657 15.1437 40.1738 14.4388C39.7132 15.8414 38.7516 17.0321 37.4674 17.79C38.6871 17.6505 39.8782 17.3295 41 16.8381C40.1744 18.0552 39.1348 19.1176 37.9303 19.9753C37.942 20.2349 37.9479 20.5003 37.9479 20.7599Z" fill="#636376"/>
</svg>
