<svg width="50" height="50" viewBox="0 0 50 50" fill="none" xmlns="http://www.w3.org/2000/svg">
<path fill-rule="evenodd" clip-rule="evenodd" d="M25 50C38.8071 50 50 38.8071 50 25C50 11.1929 38.8071 0 25 0C11.1929 0 0 11.1929 0 25C0 38.8071 11.1929 50 25 50ZM10.2 16H13.6992C14.5936 16 14.9296 16.3921 15.2656 17.3618C16.9776 22.3472 19.864 26.7056 21.0496 26.7056C21.496 26.7056 21.6992 26.501 21.6992 25.3696V20.2158C21.6191 18.749 21.1065 18.1143 20.7269 17.644C20.4925 17.354 20.3088 17.1265 20.3088 16.8047C20.3088 16.4126 20.6432 16 21.1984 16H26.6992C27.4416 16 27.6992 16.397 27.6992 17.2866V24.2207C27.6992 24.9614 28.0208 25.2222 28.2432 25.2222C28.688 25.2222 29.0592 24.9614 29.8752 24.1455C32.3968 21.3281 34.176 16.9902 34.176 16.9902C34.3984 16.4702 34.8096 16 35.6992 16H39.1984C40.2576 16 40.4816 16.5454 40.2576 17.2866C39.8128 19.3262 35.5488 25.333 35.5488 25.333C35.1776 25.9263 35.0288 26.2222 35.5488 26.8896C35.7324 27.147 36.1242 27.5308 36.5721 27.9697C37.0298 28.4185 37.546 28.9243 37.9584 29.4111C39.4624 31.1025 40.5952 32.5298 40.9104 33.5122C41.2 34.499 40.6992 35 39.6992 35H36.1984C35.2612 35 34.7896 34.4751 33.7698 33.3398C33.3376 32.8589 32.807 32.2681 32.1008 31.5615C30.0224 29.5601 29.1344 29.3008 28.6144 29.3008C27.9104 29.3008 27.6992 29.501 27.6992 30.501V33.6401C27.6992 34.499 27.424 35 25.1984 35C21.4912 35 17.416 32.749 14.5248 28.5952C10.1856 22.5151 9 17.917 9 16.9902C9 16.4702 9.2 16 10.2 16Z" fill="#636376"/>
</svg>
